<mxfile host="app.diagrams.net" modified="2025-01-04T20:08:08.874Z" agent="Mozilla/5.0 (X11; Linux x86_64) AppleWebKit/537.36 (KHTML, like Gecko) Chrome/121.0.0.0 Safari/537.36" etag="gpT1PSSil-ie_afU1KUu" version="24.5.5" type="device">
  <diagram name="Page-1" id="EDeBQjUm_JnECWkw1oCu">
    <mxGraphModel dx="908" dy="638" grid="1" gridSize="10" guides="1" tooltips="1" connect="1" arrows="1" fold="1" page="1" pageScale="1" pageWidth="850" pageHeight="1100" math="0" shadow="0">
      <root>
        <mxCell id="0" />
        <mxCell id="1" parent="0" />
        <mxCell id="gXYW59sPCFEmV-0ytUSG-1" value="Front-end&lt;div&gt;(приложение, сайт приложения через браузер)&lt;/div&gt;" style="shape=umlActor;verticalLabelPosition=bottom;verticalAlign=top;html=1;outlineConnect=0;" vertex="1" parent="1">
          <mxGeometry x="410" y="40" width="30" height="60" as="geometry" />
        </mxCell>
        <mxCell id="gXYW59sPCFEmV-0ytUSG-2" value="Внешний Api-Gateway" style="rounded=0;whiteSpace=wrap;html=1;fillColor=none;" vertex="1" parent="1">
          <mxGeometry x="235" y="170" width="380" height="40" as="geometry" />
        </mxCell>
        <mxCell id="gXYW59sPCFEmV-0ytUSG-3" value="Домен регистрации и авторизации&lt;div&gt;&lt;br&gt;&lt;/div&gt;&lt;div&gt;&lt;br&gt;&lt;/div&gt;" style="whiteSpace=wrap;html=1;aspect=fixed;dashed=1;fillColor=none;" vertex="1" parent="1">
          <mxGeometry x="350" y="240" width="165" height="165" as="geometry" />
        </mxCell>
      </root>
    </mxGraphModel>
  </diagram>
</mxfile>
